<?xml version="1.0" encoding="utf-8"?>
<!-- Generator: Adobe Illustrator 20.1.0, SVG Export Plug-In . SVG Version: 6.00 Build 0)  -->
<svg version="1.1" id="Layer_1" xmlns="http://www.w3.org/2000/svg" xmlns:xlink="http://www.w3.org/1999/xlink" x="0px" y="0px"
	 viewBox="0 0 16 21.4" style="enable-background:new 0 0 16 21.4;" xml:space="preserve">
<style type="text/css">
	.st0{fill:#323A3B;}
</style>
<g>
	<g>
		<path class="st0" d="M7.9,15.6c3.2,0,5.9-2.7,5.9-6v0c0-3.1-2.2-6-2.3-6.1l-0.6-0.7l-1,1.6l-2-4.1l-2,4.1l-1-1.6L4.4,3.6
			C4.3,3.7,2.1,6.5,2.1,9.7v0C2.1,13,4.7,15.6,7.9,15.6z M4.8,5.2l1.2,2l1.9-3.8l1.9,3.8l1.2-2c0.6,1,1.5,2.7,1.5,4.5
			c0,2.6-2.1,4.7-4.6,4.7s-4.6-2.1-4.6-4.7C3.4,7.9,4.2,6.1,4.8,5.2z M15.4,16.6L15,15.4l-7.1,2.3l-7.1-2.3l-0.4,1.2l5.4,1.7
			l-5.4,1.7l0.4,1.2l7.1-2.3l7.1,2.3l0.4-1.2L10,18.4L15.4,16.6z"/>
	</g>
</g>
</svg>
