<?xml version="1.0" encoding="utf-8"?>
<!-- Generator: Adobe Illustrator 20.1.0, SVG Export Plug-In . SVG Version: 6.00 Build 0)  -->
<svg version="1.1" id="Layer_1" xmlns="http://www.w3.org/2000/svg" xmlns:xlink="http://www.w3.org/1999/xlink" x="0px" y="0px"
	 viewBox="0 0 20 19.8" style="enable-background:new 0 0 20 19.8;" xml:space="preserve">
<style type="text/css">
	.st0{fill:#323A3B;}
</style>
<path class="st0" d="M19.2,13.9h-1c-0.4-3.9-3.5-7.6-7.3-8V4.5c0-0.5-0.4-0.9-0.8-0.9C9.5,3.7,9.2,4,9.2,4.5v1.4
	c-3.8,0.4-6.9,4.1-7.3,8h-1c-0.5,0-0.8,0.4-0.8,0.9c0,0.5,0.4,0.9,0.8,0.9h18.3c0.5,0,0.8-0.4,0.8-0.9C20,14.3,19.6,13.9,19.2,13.9z
	 M10,7.6c3.3,0,6,3.1,6.4,6.3H3.6C4,10.6,6.7,7.6,10,7.6z"/>
</svg>
