<?xml version="1.0" encoding="utf-8"?>
<!-- Generator: Adobe Illustrator 20.1.0, SVG Export Plug-In . SVG Version: 6.00 Build 0)  -->
<svg version="1.1" id="Layer_1" xmlns="http://www.w3.org/2000/svg" xmlns:xlink="http://www.w3.org/1999/xlink" x="0px" y="0px"
	 viewBox="0 0 15 19" style="enable-background:new 0 0 15 19;" xml:space="preserve">
<style type="text/css">
	.st0{fill:#323A3B;}
</style>
<path class="st0" d="M12.9,4.2h-3C10,4,10,3.8,10.1,3.5c0,0,0,0,0,0c0.1-0.5,0.3-1,0.6-1.4c0.1-0.2,0.1-0.5,0-0.7
	c-0.1-0.2-0.3-0.4-0.5-0.4L2.4,0C2.1,0,1.8,0.1,1.7,0.4C1.5,0.6,1.5,1,1.7,1.2c0.6,0.7,1,1.5,1.2,2.3c0.1,0.5,0.2,1,0.2,1.4
	c0,1.3-0.4,2.6-1.3,3.6C1.7,8.7,1.6,8.8,1.5,9c0,0,0,0,0,0.1C0.5,10.2,0,11.6,0,13.1c0,2.4,1.3,4.6,3.4,5.8C3.5,19,3.6,19,3.7,19
	h5.6c0.1,0,0.2,0,0.3-0.1c1.8-1,3.1-2.9,3.3-5h1.3c0.4,0,0.7-0.3,0.7-0.7V6.3C15,5.2,14.1,4.2,12.9,4.2z M9.1,17.6H3.9
	c-1.5-0.9-2.5-2.6-2.5-4.4c0-1.2,0.4-2.3,1.1-3.2C2.7,9.8,2.8,9.6,3,9.4c1-1.3,1.6-2.9,1.6-4.5c0-0.6-0.1-1.2-0.2-1.8c0,0,0,0,0,0
	c0,0,0,0,0,0C4.2,2.6,4,2.1,3.7,1.6l5.2,0.7C8.8,2.6,8.8,2.9,8.7,3.2c0,0,0,0,0,0C8.5,3.8,8.5,4.4,8.5,4.9C8.5,6.6,9,8.2,10,9.4
	c0.1,0.2,0.3,0.3,0.4,0.5c0.7,0.9,1.1,2,1.1,3.2C11.6,15,10.6,16.6,9.1,17.6z M13.6,12.5H13c-0.1-1.3-0.6-2.5-1.4-3.5c0,0,0,0,0-0.1
	c-0.1-0.1-0.3-0.3-0.4-0.4C10.5,7.7,10,6.7,9.9,5.7h3c0.4,0,0.7,0.3,0.7,0.7V12.5z"/>
</svg>
