<?xml version="1.0" encoding="utf-8"?>
<!-- Generator: Adobe Illustrator 20.1.0, SVG Export Plug-In . SVG Version: 6.00 Build 0)  -->
<svg version="1.1" id="Layer_1" xmlns="http://www.w3.org/2000/svg" xmlns:xlink="http://www.w3.org/1999/xlink" x="0px" y="0px"
	 viewBox="0 0 16 19" style="enable-background:new 0 0 16 19;" xml:space="preserve">
<style type="text/css">
	.st0{fill:#323A3B;}
</style>
<path class="st0" d="M15.2,8.8H7.8v-7C7.8,0.8,7,0,6,0H1.8C0.8,0,0,0.8,0,1.8v7.3c0,0.1,0,0.1,0,0.2c0,0.1,0,0.1,0,0.2v1.3
	C0,11,0,11,0,11.1c0.2,1.6,1.2,3.5,2.8,4.4v0.4C2.3,16.2,2,16.7,2,17.3C2,18.2,2.8,19,3.7,19h7.3c0.9,0,1.7-0.8,1.7-1.7
	c0-0.9-0.7-1.6-1.5-1.7c3.1-0.7,4.4-2.8,4.6-4.6L16,9.7c0-0.2,0-0.5-0.2-0.6C15.7,8.9,15.4,8.8,15.2,8.8z M1.8,1.6H6
	c0.1,0,0.2,0.1,0.2,0.2v7H1.6v-7C1.6,1.7,1.7,1.6,1.8,1.6z M14.2,10.8C14.2,10.8,14.2,10.8,14.2,10.8c-0.1,1-0.7,3.2-4.4,3.5
	c-0.3,0-0.5,0.2-0.6,0.4c-0.1,0.2-0.1,0.5,0,0.8l0.8,1.4c0.1,0.3,0.4,0.4,0.7,0.4h0.5c0.1,0,0.1,0,0.1,0.1c0,0.1-0.1,0.1-0.1,0.1
	H3.7c-0.1,0-0.1,0-0.1-0.1c0-0.1,0.1-0.1,0.1-0.1c0.4,0,0.7-0.4,0.7-0.8v-1.5c0-0.3-0.2-0.6-0.5-0.8c-1.2-0.4-2.2-2.1-2.3-3.4
	c0,0,0,0,0,0v-0.5h12.7L14.2,10.8z"/>
</svg>
