<?xml version="1.0" encoding="utf-8"?>
<!-- Generator: Adobe Illustrator 20.1.0, SVG Export Plug-In . SVG Version: 6.00 Build 0)  -->
<svg version="1.1" id="Layer_1" xmlns="http://www.w3.org/2000/svg" xmlns:xlink="http://www.w3.org/1999/xlink" x="0px" y="0px"
	 viewBox="0 0 15 21" style="enable-background:new 0 0 15 21;" xml:space="preserve">
<style type="text/css">
	.st0{fill:#485383;}
</style>
<g>
	<g>
		<path class="st0" d="M13.1,0.6H1.9C0.8,0.6,0,1.4,0,2.5v13.8c0,0.6,0.3,1.1,0.8,1.4c0,0,0,0.1,0,0.1v1.3c0,0.7,0.6,1.3,1.3,1.3
			h0.4c0.7,0,1.3-0.6,1.3-1.3v-1h7.5v1c0,0.7,0.6,1.3,1.3,1.3h0.4c0.7,0,1.3-0.6,1.3-1.3v-1.3c0.5-0.3,0.8-0.9,0.8-1.5V2.5
			C15,1.4,14.2,0.6,13.1,0.6z M3,19.2c0,0.3-0.2,0.6-0.6,0.6H2.1c-0.3,0-0.6-0.3-0.6-0.6v-1.1c0.2,0.1,0.4,0.1,0.6,0.1H3V19.2z
			 M13.5,19.2c0,0.3-0.2,0.6-0.6,0.6h-0.4c-0.3,0-0.6-0.3-0.6-0.6v-1h1.1c0.1,0,0.3,0,0.4,0V19.2z M14.2,16.4c0,0.6-0.5,1.2-1.1,1.2
			H2.1c-0.6,0-1.3-0.5-1.3-1.2v-3.5h13.5V16.4z M14.2,12.1H0.7V4.4h13.5V12.1z M14.2,3.7H0.7V2.5c0-0.6,0.5-1.2,1.1-1.2h11.2
			c0.6,0,1.1,0.5,1.1,1.2V3.7z M6.7,2.1H4.3c-0.2,0-0.4,0.2-0.4,0.4c0,0.2,0.2,0.4,0.4,0.4h2.4c0.2,0,0.4-0.2,0.4-0.4
			C7.1,2.3,7,2.1,6.7,2.1z M9,2.1H8.4c-0.2,0-0.4,0.2-0.4,0.4c0,0.2,0.2,0.4,0.4,0.4H9c0.2,0,0.4-0.2,0.4-0.4C9.4,2.3,9.2,2.1,9,2.1
			z M2.8,16.2c0.6,0,1.1-0.5,1.1-1.2c0-0.6-0.5-1.2-1.1-1.2c-0.6,0-1.1,0.5-1.1,1.2C1.7,15.6,2.2,16.2,2.8,16.2z M2.8,14.6
			c0.2,0,0.4,0.2,0.4,0.4c0,0.2-0.2,0.4-0.4,0.4c-0.2,0-0.4-0.2-0.4-0.4C2.4,14.8,2.6,14.6,2.8,14.6z M12.2,16.2
			c0.6,0,1.1-0.5,1.1-1.2c0-0.6-0.5-1.2-1.1-1.2c-0.6,0-1.1,0.5-1.1,1.2C11.1,15.6,11.6,16.2,12.2,16.2z M12.2,14.6
			c0.2,0,0.4,0.2,0.4,0.4c0,0.2-0.2,0.4-0.4,0.4c-0.2,0-0.4-0.2-0.4-0.4C11.8,14.8,12,14.6,12.2,14.6z"/>
	</g>
</g>
</svg>
