<?xml version="1.0" encoding="utf-8"?>
<!-- Generator: Adobe Illustrator 20.1.0, SVG Export Plug-In . SVG Version: 6.00 Build 0)  -->
<svg version="1.1" id="Layer_1" xmlns="http://www.w3.org/2000/svg" xmlns:xlink="http://www.w3.org/1999/xlink" x="0px" y="0px"
	 viewBox="0 0 18 18.5" style="enable-background:new 0 0 18 18.5;" xml:space="preserve">
<style type="text/css">
	.st0{fill:#485383;}
</style>
<path class="st0" d="M17.3,1c-0.5-0.5-1.1-0.7-1.8-0.7c-0.7,0-1.4,0.3-1.9,0.8L11,3.8L2.1,1.2L0.4,2.9C0.2,3.1,0.1,3.3,0.1,3.6
	c0,0.3,0.1,0.5,0.3,0.7l0.1,0.1L7.1,8l-2.4,2.5c-0.2,0.2-0.3,0.4-0.5,0.6l-2.9-0.8l-1.2,1.2c-0.3,0.3-0.3,0.9,0,1.2l0.1,0.1l3.3,1.7
	l0.2,0.2L5.5,18L5.6,18c0.2,0.2,0.4,0.3,0.6,0.3c0.2,0,0.5-0.1,0.6-0.3l1.2-1.2l-0.8-3c0.2-0.1,0.4-0.3,0.5-0.4l2.6-2.4l3.7,6.6
	l0,0.1l0.1,0.1c0.2,0.2,0.4,0.3,0.7,0.3c0.3,0,0.5-0.1,0.7-0.3l1.7-1.7l-2.7-8.9l2.7-2.6C17.7,4.2,18,3.5,18,2.8
	C18,2.1,17.8,1.5,17.3,1z M16.4,3.9l-3.2,3l2.7,9L14.8,17l-4.2-7.6L7,12.7l0,0c-0.2,0.2-0.4,0.4-0.7,0.5l-0.4,0.2l0.8,3.2L6.2,17
	l-1.5-3l-0.4-0.4l-3-1.5l0.5-0.5l3.1,0.8L5.1,12c0.1-0.2,0.3-0.5,0.5-0.7l3.3-3.6L1.3,3.6l1.1-1.1l8.9,2.7l3-3.2
	c0.3-0.3,0.7-0.5,1.1-0.5c0.4,0,0.7,0.1,1,0.4c0.3,0.3,0.4,0.6,0.4,1C16.9,3.2,16.7,3.6,16.4,3.9z"/>
</svg>
