<?xml version="1.0" encoding="utf-8"?>
<!-- Generator: Adobe Illustrator 20.1.0, SVG Export Plug-In . SVG Version: 6.00 Build 0)  -->
<svg version="1.1" id="Layer_1" xmlns="http://www.w3.org/2000/svg" xmlns:xlink="http://www.w3.org/1999/xlink" x="0px" y="0px"
	 viewBox="0 0 16.2 23.5" style="enable-background:new 0 0 16.2 23.5;" xml:space="preserve">
<style type="text/css">
	.st0{fill:#485383;}
</style>
<path class="st0" d="M11,2.2H5c-2.8,0-5,2.2-5,4.9V18h16V7.1C16,4.4,13.8,2.2,11,2.2z M15.2,17.3H0.8V7.1C0.8,4.9,2.7,3,5,3h6
	c2.3,0,4.2,1.9,4.2,4.1V17.3z M11.7,0.2H4.2V1h7.5L11.7,0.2L11.7,0.2z M3.1,12.6c-0.8,0-1.5,0.7-1.5,1.5s0.7,1.5,1.5,1.5
	c0.8,0,1.5-0.7,1.5-1.5C4.6,13.3,3.9,12.6,3.1,12.6z M3.1,14.8c-0.4,0-0.7-0.3-0.7-0.7c0-0.4,0.3-0.7,0.7-0.7c0.4,0,0.7,0.3,0.7,0.7
	C3.8,14.5,3.5,14.8,3.1,14.8z M12.9,12.6c-0.8,0-1.5,0.7-1.5,1.5s0.7,1.5,1.5,1.5c0.8,0,1.5-0.7,1.5-1.5S13.7,12.6,12.9,12.6z
	 M12.9,14.8c-0.4,0-0.7-0.3-0.7-0.7c0-0.4,0.3-0.7,0.7-0.7c0.4,0,0.7,0.3,0.7,0.7C13.6,14.5,13.3,14.8,12.9,14.8z M0.8,22.8l0.7,0.4
	l2.6-4.3l-0.7-0.4L0.8,22.8z M11.9,18.9l2.6,4.3l0.7-0.4l-2.6-4.3L11.9,18.9z M13.9,7.3c0-1.4-1.1-2.5-2.6-2.5H4.6
	c-1.4,0-2.6,1.1-2.6,2.5v4h11.8V7.3z M13.1,10.5H2.9V7.3c0-1,0.8-1.7,1.8-1.7h6.7c1,0,1.8,0.8,1.8,1.7L13.1,10.5L13.1,10.5z"/>
</svg>
