<?xml version="1.0" encoding="utf-8"?>
<!-- Generator: Adobe Illustrator 20.1.0, SVG Export Plug-In . SVG Version: 6.00 Build 0)  -->
<svg version="1.1" id="Layer_1" xmlns="http://www.w3.org/2000/svg" xmlns:xlink="http://www.w3.org/1999/xlink" x="0px" y="0px"
	 viewBox="0 0 45.8 55" style="enable-background:new 0 0 45.8 55;" xml:space="preserve">
<style type="text/css">
	.st0{fill:#FFC70A;}
</style>
<path class="st0" d="M26.8,54.4l7.5-7.6c0.3-0.3,0.4-0.7,0.4-1.1c0-0.4-0.1-0.8-0.4-1.1l-7.5-7.6c-0.6-0.6-1.5-0.6-2.1,0
	c-0.3,0.3-0.4,0.7-0.4,1.1c0,0.4,0.1,0.8,0.4,1.1l5,5.1H10.3c-4.1,0-7.4-3.4-7.4-7.6c0-4.2,3.3-7.6,7.4-7.6h25.1
	c5.7,0,10.3-4.8,10.3-10.6S41.2,7.8,35.5,7.8H17.8l4.9-5.1c0.6-0.6,0.6-1.5,0-2.1c-0.6-0.6-1.5-0.6-2.1,0l-7.5,7.6
	c-0.3,0.3-0.4,0.7-0.4,1.1c0,0,0,0,0,0.1s0,0,0,0.1c0,0.4,0.1,0.8,0.4,1.1l7.5,7.6c0.6,0.6,1.5,0.6,2.1,0c0.6-0.6,0.6-1.5,0-2.1
	l-5.1-5.2h17.8c4.1,0,7.4,3.4,7.4,7.6c0,4.2-3.3,7.6-7.4,7.6H10.3C4.6,25.9,0,30.7,0,36.5c0,5.8,4.6,10.6,10.3,10.6h19.3l-5,5.1
	c-0.3,0.3-0.4,0.7-0.4,1.1c0,0.4,0.1,0.8,0.4,1.1C25.2,55,26.2,55,26.8,54.4z"/>
</svg>
