<?xml version="1.0" encoding="utf-8"?>
<!-- Generator: Adobe Illustrator 20.1.0, SVG Export Plug-In . SVG Version: 6.00 Build 0)  -->
<svg version="1.1" id="Layer_1" xmlns="http://www.w3.org/2000/svg" xmlns:xlink="http://www.w3.org/1999/xlink" x="0px" y="0px"
	 viewBox="0 0 60 55" style="enable-background:new 0 0 60 55;" xml:space="preserve">
<style type="text/css">
	.st0{fill:#FFC70A;}
</style>
<g>
	<g>
		<path class="st0" d="M26.8,20.2c-2.6,0-5.5,1.1-8.3,3.2c-2.8-2.2-5.7-3.3-8.4-3.3c-4.7,0-8.4,3.5-9.4,8.8C-0.8,37,4,47.6,18,53.3
			c0.2,0.1,0.3,0.1,0.5,0.1c0.2,0,0.3,0,0.5-0.1c14-5.9,18.7-16.4,17.2-24.3C35.2,23.7,31.5,20.2,26.8,20.2z M18.5,50.7
			C6.2,45.5,1.9,36.3,3.2,29.5c0.7-4.1,3.5-6.7,6.9-6.7c2.3,0,4.9,1.2,7.5,3.4c0.5,0.4,1.1,0.4,1.6,0c2.6-2.1,5.2-3.3,7.5-3.3
			c3.4,0,6.1,2.6,6.9,6.6C35,36.2,30.8,45.4,18.5,50.7z M58.6,10c-0.5-2.7-2.3-4.4-4.7-4.4c-1.3,0-2.7,0.6-4.1,1.6
			c-1.4-1.1-2.8-1.6-4.2-1.6c-2.4,0-4.2,1.7-4.7,4.4c-0.7,4,1.6,9.3,8.7,12.2c0.1,0,0.2,0,0.2,0c0.1,0,0.2,0,0.2,0
			C56.9,19.2,59.3,13.9,58.6,10z M49.7,20.8c-6.1-2.6-8.3-7.2-7.6-10.6c0.4-2,1.7-3.4,3.5-3.4c1.2,0,2.5,0.6,3.8,1.7
			c0.2,0.2,0.6,0.2,0.8,0c1.3-1.1,2.6-1.6,3.8-1.6c1.7,0,3.1,1.3,3.5,3.3C58,13.6,55.8,18.2,49.7,20.8z M15.8,15.8
			c0.1,0,0.1,0,0.2,0s0.1,0,0.2,0c5.7-2.4,7.7-6.6,7.1-9.7c-0.4-2.1-1.9-3.5-3.8-3.5c-1.1,0-2.2,0.4-3.4,1.3
			c-1.2-0.9-2.3-1.3-3.4-1.3c-1.9,0-3.4,1.4-3.9,3.5C8.1,9.2,10.1,13.5,15.8,15.8z M9.8,6.2c0.3-1.6,1.4-2.7,2.8-2.7
			c1,0,2,0.5,3.1,1.3c0.2,0.2,0.5,0.2,0.6,0c1.1-0.9,2.1-1.3,3.1-1.3c1.4,0,2.5,1,2.8,2.6c0.5,2.7-1.2,6.3-6.2,8.5
			C11,12.6,9.3,8.9,9.8,6.2z"/>
	</g>
</g>
</svg>
