<?xml version="1.0" encoding="utf-8"?>
<!-- Generator: Adobe Illustrator 20.1.0, SVG Export Plug-In . SVG Version: 6.00 Build 0)  -->
<svg version="1.1" id="Layer_1" xmlns="http://www.w3.org/2000/svg" xmlns:xlink="http://www.w3.org/1999/xlink" x="0px" y="0px"
	 viewBox="0 0 60 55" style="enable-background:new 0 0 60 55;" xml:space="preserve">
<style type="text/css">
	.st0{fill-rule:evenodd;clip-rule:evenodd;fill:#FFC70A;}
</style>
<g>
	<g>
		<path class="st0" d="M54.1,0.1L19.9,0C16.7,0,14,2.6,14,5.9V11l-8.1,0C2.7,11,0,13.7,0,17v21.1C0,41.3,2.7,44,5.9,44H12v10
			c0,0.4,0.3,0.8,0.6,0.9c0.1,0,0.2,0.1,0.4,0.1c0.3,0,0.5-0.1,0.7-0.3L23.4,44l16.6-0.1c3.3,0,5.9-2.7,5.9-5.9v-0.1l5.3,5.8
			c0.2,0.2,0.5,0.3,0.7,0.3c0.1,0,0.2,0,0.4-0.1c0.4-0.1,0.6-0.5,0.6-0.9V33h1.1c3.3,0,5.9-2.7,5.9-5.9V6C60,2.7,57.3,0.1,54.1,0.1z
			 M44,35.3V38c0,2.2-1.8,3.9-3.9,3.9L23,42c-0.3,0-0.5,0.1-0.7,0.3L14,51.4V43c0-0.6-0.4-1-1-1H5.9C3.8,42,2,40.2,2,38.1V17
			C2,14.8,3.8,13,5.9,13l9.1,0h0L39.9,13h0.2c2.2,0,3.9,1.8,3.9,3.9V35.3z M58,27.1L58,27.1c0,2.2-1.8,3.9-3.9,3.9H52
			c-0.6,0-1,0.4-1,1v8.4l-5-5.5v-18v0c0-3.3-2.7-5.9-5.9-5.9H40l-24,0V5.9C16,3.7,17.8,2,19.9,2L54.1,2c0,0,0,0,0,0
			C56.2,2,58,3.8,58,6V27.1z M13.7,25.2L12.5,23l-1.2,2.2L9,25.7l1.6,1.8L10.3,30l2.2-1.1l2.2,1.1l-0.3-2.5l1.6-1.8L13.7,25.2z
			 M23.7,25.2L22.5,23l-1.2,2.2L19,25.7l1.6,1.8L20.3,30l2.2-1.1l2.2,1.1l-0.3-2.5l1.6-1.8L23.7,25.2z M33.7,25.2L32.5,23l-1.2,2.2
			L29,25.7l1.6,1.8L30.3,30l2.2-1.1l2.2,1.1l-0.3-2.5l1.6-1.8L33.7,25.2z"/>
	</g>
</g>
</svg>
