<?xml version="1.0" encoding="utf-8"?>
<!-- Generator: Adobe Illustrator 20.1.0, SVG Export Plug-In . SVG Version: 6.00 Build 0)  -->
<svg version="1.1" id="Layer_1" xmlns="http://www.w3.org/2000/svg" xmlns:xlink="http://www.w3.org/1999/xlink" x="0px" y="0px"
	 viewBox="0 0 30.7 30" style="enable-background:new 0 0 30.7 30;" xml:space="preserve">
<style type="text/css">
	.st0{fill:#1A2331;}
</style>
<g>
	<g>
		<path class="st0" d="M19.9,12.8c1,0,1.7-0.8,1.7-1.7c0-1-0.8-1.7-1.7-1.7c-1,0-1.7,0.8-1.7,1.7C18.2,12,19,12.8,19.9,12.8z
			 M10,12.8c1,0,1.7-0.8,1.7-1.7c0-1-0.8-1.7-1.7-1.7s-1.7,0.8-1.7,1.7C8.3,12,9.1,12.8,10,12.8z M21.1,17.8c-0.4,0-0.7,0.3-0.7,0.7
			c0,2.2-1.8,4-4.1,4h-2.4c-2.3,0-4.1-1.8-4.1-4c0-0.4-0.3-0.7-0.7-0.7c-0.4,0-0.7,0.3-0.7,0.7c0,3,2.5,5.4,5.5,5.4h2.4
			c3.1,0,5.5-2.4,5.5-5.4C21.8,18.1,21.5,17.8,21.1,17.8z M15,0C6.7,0,0,6.7,0,15c0,8.3,6.7,15,15,15c8.3,0,15-6.7,15-15
			C30,6.7,23.3,0,15,0z M15,28.6C7.5,28.6,1.4,22.5,1.4,15C1.4,7.5,7.5,1.4,15,1.4c7.5,0,13.6,6.1,13.6,13.6
			C28.6,22.5,22.5,28.6,15,28.6z"/>
	</g>
</g>
</svg>
