<?xml version="1.0" encoding="utf-8"?>
<!-- Generator: Adobe Illustrator 20.1.0, SVG Export Plug-In . SVG Version: 6.00 Build 0)  -->
<svg version="1.1" id="Layer_1" xmlns="http://www.w3.org/2000/svg" xmlns:xlink="http://www.w3.org/1999/xlink" x="0px" y="0px"
	 viewBox="0 0 61 55" style="enable-background:new 0 0 61 55;" xml:space="preserve">
<style type="text/css">
	.st0{fill:#192331;}
</style>
<g>
	<g>
		<path class="st0" d="M55.9,27.1h-10c-0.2,0-0.3,0-0.5,0.1c-0.2-3.6-1.6-6.9-3.9-9.5l5.3-5.3c0.4-0.4,0.4-0.9,0-1.3
			c-0.4-0.4-0.9-0.4-1.3,0l-5.3,5.3c-2.5-2.3-5.9-3.8-9.6-4c0.1-0.1,0.1-0.3,0.1-0.5v-10c0-0.5-0.4-0.9-0.9-0.9s-0.9,0.4-0.9,0.9v10
			c0,0.2,0,0.3,0.1,0.5c-3.6,0.2-6.8,1.6-9.4,3.8l-5.5-5.5c-0.4-0.4-0.9-0.4-1.3,0c-0.4,0.4-0.4,0.9,0,1.3l5.5,5.5
			c-2.3,2.5-3.8,5.9-4,9.6c-0.1-0.1-0.3-0.1-0.5-0.1H4c-0.5,0-0.9,0.4-0.9,0.9c0,0.5,0.4,0.9,0.9,0.9h10c0.2,0,0.3,0,0.5-0.1
			c0.2,3.6,1.6,7,4,9.6l-5.1,5.1c-0.4,0.4-0.4,0.9,0,1.3c0.2,0.2,0.4,0.3,0.6,0.3c0.2,0,0.5-0.1,0.6-0.3l5.1-5.1
			c2.5,2.2,5.8,3.7,9.5,3.9c-0.1,0.1-0.1,0.3-0.1,0.5v10c0,0.5,0.4,0.9,0.9,0.9s0.9-0.4,0.9-0.9V44c0-0.2,0-0.3-0.1-0.5
			c3.7-0.2,7.1-1.7,9.6-4l5.2,5.2c0.2,0.2,0.4,0.3,0.6,0.3s0.5-0.1,0.6-0.3c0.4-0.4,0.4-0.9,0-1.3l-5.2-5.3c2.2-2.5,3.6-5.8,3.8-9.4
			c0.1,0.1,0.3,0.1,0.5,0.1h10c0.5,0,0.9-0.4,0.9-0.9S56.4,27.1,55.9,27.1z M30,41.7c-3.6,0-6.9-1.4-9.4-3.7c0-0.1-0.1-0.2-0.2-0.3
			c-0.1-0.1-0.2-0.1-0.3-0.2c-2.4-2.5-3.8-5.8-3.8-9.5c0-7.5,6.1-13.6,13.7-13.6c7.5,0,13.7,6.1,13.7,13.6S37.5,41.7,30,41.7z
			 M21.6,23c0.3,0,0.5-0.1,0.7-0.4c0,0,0.1-0.1,0.1-0.1c0.1-0.1,0.2-0.3,0.4-0.5c0.2-0.5,0-1-0.4-1.2c-0.5-0.2-1,0-1.2,0.4
			c0,0-0.1,0.1-0.1,0.2c0,0-0.1,0.1-0.1,0.2c-0.3,0.4-0.2,1,0.2,1.3C21.2,22.9,21.4,23,21.6,23z M20.5,28c0-0.8,0.1-1.6,0.3-2.5
			c0.1-0.5-0.2-1-0.6-1.1c-0.5-0.1-1,0.2-1.1,0.6c-0.3,1-0.4,2-0.4,2.9c0,3.2,1.3,6.2,3.8,8.4c0.2,0.1,0.4,0.2,0.6,0.2
			c0.2,0,0.5-0.1,0.7-0.3c0.3-0.4,0.3-1-0.1-1.3C21.6,33.2,20.5,30.7,20.5,28z"/>
	</g>
</g>
</svg>
