<?xml version="1.0" encoding="utf-8"?>
<!-- Generator: Adobe Illustrator 20.1.0, SVG Export Plug-In . SVG Version: 6.00 Build 0)  -->
<svg version="1.1" id="Layer_1" xmlns="http://www.w3.org/2000/svg" xmlns:xlink="http://www.w3.org/1999/xlink" x="0px" y="0px"
	 viewBox="0 0 60 55" style="enable-background:new 0 0 60 55;" xml:space="preserve">
<style type="text/css">
	.st0{fill:#FFC70A;}
</style>
<path class="st0" d="M45.9,7.2C41.3,2.6,35.2,0,28.9,0c-0.1,0-0.1,0-0.2,0c-6.4,0-12.5,2.6-17.1,7.3c-4.7,4.7-7.4,11-7.8,17.8
	c0,0.3,0.1,0.6,0.2,0.8l14.5,18v10c0,0.6,0.5,1.1,1.1,1.1h18.2c0.6,0,1.1-0.5,1.1-1.1v-10l14.6-18c0.2-0.2,0.3-0.5,0.2-0.8l0,0
	C53.4,18.2,50.5,11.9,45.9,7.2z M28.8,2.3c0.1,0,0.1,0,0.2,0c9.9,0,18.4,7,21.5,16.8c-1.6-1.2-3.6-1.9-5.7-1.9
	c-2.3,0-4.5,0.8-6.2,2.3c-0.7,0.6-1.3,1.4-1.8,2.2c-1.5-2.7-4.5-4.5-7.9-4.5c-2.3,0-4.6,0.8-6.2,2.3c-0.7,0.6-1.3,1.4-1.8,2.2
	c-0.5-0.8-1.1-1.5-1.8-2.2c-1.7-1.5-3.9-2.3-6.2-2.3c-2.2,0-4.1,0.7-5.7,1.9C10.2,9.3,18.8,2.3,28.8,2.3z M35.6,25.1l-1.1,17.2H23
	l0,0L22,25.2c0.3-3.3,3.2-5.8,6.9-5.8C32.3,19.4,35.2,21.9,35.6,25.1z M6.1,24.9c0.4-3.2,3.2-5.5,6.7-5.5c3.5,0,6.6,2.6,6.9,5.8
	l1,17.1h-0.6L6.1,24.9z M36.7,52.7h-16v-8.1h16V52.7z M37.3,42.4L37.3,42.4h-0.6l1-17.1c0.3-3.3,3.3-5.8,6.9-5.8
	c3.5,0,6.4,2.3,6.8,5.4L37.3,42.4z"/>
</svg>
